<svg width="16" height="16" viewBox="0 0 16 16" fill="none" xmlns="http://www.w3.org/2000/svg">
<path d="M10.2293 11.852C10.2293 11.576 10.0053 11.352 9.72931 11.352H6.28931C6.01331 11.352 5.78931 11.576 5.78931 11.852C5.78931 12.128 6.01331 12.352 6.28931 12.352H9.72931C10.0053 12.352 10.2293 12.128 10.2293 11.852ZM11.7 9.18534C11.7 8.90934 11.476 8.68534 11.2 8.68534H4.80265C4.52665 8.68534 4.30265 8.90934 4.30265 9.18534C4.30265 9.46134 4.52665 9.68534 4.80265 9.68534H11.2C11.476 9.68534 11.7 9.46134 11.7 9.18534ZM13.3333 6.51867C13.3333 6.24267 13.1093 6.01867 12.8333 6.01867H3.16665C2.89065 6.01867 2.66665 6.24267 2.66665 6.51867C2.66665 6.79467 2.89065 7.01867 3.16665 7.01867H12.8333C13.1093 7.01867 13.3333 6.79467 13.3333 6.51867ZM14.6666 3.85201C14.6666 3.57601 14.4426 3.35201 14.1666 3.35201H1.83331C1.55731 3.35201 1.33331 3.57601 1.33331 3.85201C1.33331 4.12801 1.55731 4.35201 1.83331 4.35201H14.1666C14.4426 4.35201 14.6666 4.12801 14.6666 3.85201Z" fill="black"/>
</svg>
