<svg width="95" height="18" viewBox="0 0 95 18" fill="none" xmlns="http://www.w3.org/2000/svg">
<path d="M20.7064 17L17.4064 11.5H16.1664V17H13.3464V2.87999H18.7264C20.3664 2.87999 21.6131 3.27999 22.4664 4.07999C23.3331 4.87999 23.7664 5.93333 23.7664 7.23999C23.7664 8.30666 23.4664 9.2 22.8664 9.92C22.2797 10.64 21.4264 11.12 20.3064 11.36L23.8264 17H20.7064ZM16.1664 9.55999H18.4864C20.0997 9.55999 20.9064 8.84666 20.9064 7.41999C20.9064 6.73999 20.7064 6.21333 20.3064 5.83999C19.9197 5.45333 19.3131 5.25999 18.4864 5.25999H16.1664V9.55999Z" fill="#2B2B2B"/>
<path d="M34.2706 14.16H28.6106L27.6106 17H24.6306L29.8306 3.03999H33.0506L38.2306 17H35.2506L34.2706 14.16ZM33.5106 12.02L31.4306 6.05999L29.3506 12.02H33.5106Z" fill="#2B2B2B"/>
<path d="M51.7126 17H48.8926L42.5726 7.39999V17H39.7526V2.87999H42.5726L48.8926 12.56V2.87999H51.7126V17Z" fill="#2B2B2B"/>
<path d="M60.6444 2.73999C62.4044 2.73999 63.8644 3.19333 65.0244 4.09999C66.1844 5.00666 66.951 6.23999 67.3244 7.79999H64.3644C64.0577 7.03999 63.5777 6.44 62.9244 6C62.2844 5.56 61.511 5.34 60.6044 5.34C59.8577 5.34 59.1844 5.52666 58.5844 5.89999C57.9844 6.27333 57.5177 6.80666 57.1844 7.49999C56.851 8.19333 56.6844 9.00666 56.6844 9.93999C56.6844 10.86 56.851 11.6667 57.1844 12.36C57.5177 13.0533 57.9844 13.5867 58.5844 13.96C59.1844 14.3333 59.8577 14.52 60.6044 14.52C61.511 14.52 62.2844 14.3 62.9244 13.86C63.5777 13.42 64.0577 12.82 64.3644 12.06H67.3244C66.951 13.62 66.1844 14.8533 65.0244 15.76C63.8644 16.6667 62.4044 17.12 60.6444 17.12C59.2977 17.12 58.1044 16.82 57.0644 16.22C56.0377 15.6067 55.2377 14.7533 54.6644 13.66C54.1044 12.5667 53.8244 11.3267 53.8244 9.93999C53.8244 8.53999 54.1044 7.29333 54.6644 6.2C55.2377 5.10666 56.0377 4.25999 57.0644 3.65999C58.091 3.04666 59.2844 2.73999 60.6444 2.73999Z" fill="#2B2B2B"/>
<path d="M81.1401 2.87999V17H78.3001V10.86H72.2601V17H69.4401V2.87999H72.2601V8.59999H78.3001V2.87999H81.1401Z" fill="#2B2B2B"/>
<path d="M94.118 11.04C94.118 11.32 94.0846 11.64 94.018 12H85.898C85.938 12.9867 86.2046 13.7133 86.698 14.18C87.1913 14.6467 87.8046 14.88 88.538 14.88C89.1913 14.88 89.7313 14.72 90.158 14.4C90.598 14.08 90.878 13.6467 90.998 13.1H93.978C93.8313 13.8733 93.518 14.5667 93.038 15.18C92.558 15.7933 91.938 16.2733 91.178 16.62C90.4313 16.9667 89.598 17.14 88.678 17.14C87.598 17.14 86.638 16.9133 85.798 16.46C84.958 15.9933 84.3046 15.3333 83.838 14.48C83.3713 13.6267 83.138 12.62 83.138 11.46C83.138 10.3 83.3713 9.29333 83.838 8.43999C84.3046 7.57333 84.958 6.91333 85.798 6.46C86.638 6.00666 87.598 5.77999 88.678 5.77999C89.7713 5.77999 90.7246 6.00666 91.538 6.46C92.3646 6.91333 92.998 7.53999 93.438 8.33999C93.8913 9.12666 94.118 10.0267 94.118 11.04ZM91.278 10.76C91.318 9.85333 91.078 9.16666 90.558 8.7C90.0513 8.23333 89.4246 7.99999 88.678 7.99999C87.918 7.99999 87.278 8.23333 86.758 8.7C86.238 9.16666 85.9513 9.85333 85.898 10.76H91.278ZM91.658 2.91999L87.058 5.08V3.15999L91.658 0.759995V2.91999Z" fill="#2B2B2B"/>
<path d="M2.83999 9.71999C1.98666 9.89333 1.30666 10.3 0.79999 10.94C0.279989 11.5667 0.019989 12.3067 0.019989 13.16C0.019989 14.3467 0.419989 15.2867 1.21999 15.98C2.00666 16.66 3.15332 17 4.65999 17H10.72V2.87999H4.77999C3.35332 2.87999 2.25999 3.19333 1.49999 3.81999C0.726656 4.44666 0.33999 5.32666 0.33999 6.46C0.33999 7.34 0.573323 8.05999 1.03999 8.61999C1.49332 9.18 2.09332 9.54666 2.83999 9.71999ZM7.89999 8.79999H5.35999C4.65332 8.79999 4.11999 8.64666 3.75999 8.33999C3.38666 8.01999 3.19999 7.56666 3.19999 6.97999C3.19999 6.39333 3.37999 5.93999 3.73999 5.62C4.09999 5.29999 4.65332 5.13999 5.39999 5.13999H7.89999V8.79999ZM5.21999 14.7C4.47332 14.7 3.89999 14.54 3.49999 14.22C3.09999 13.8867 2.89999 13.4067 2.89999 12.78C2.89999 12.1533 3.10666 11.6733 3.51999 11.34C3.91999 10.9933 4.49332 10.82 5.23999 10.82H7.89999V14.7H5.21999Z" fill="#2B2B2B"/>
</svg>
