<svg width="16" height="16" viewBox="0 0 16 16" fill="none" xmlns="http://www.w3.org/2000/svg">
<path d="M3.03933 4.66666L6.17333 1.53199C6.30533 1.39999 6.47933 1.33333 6.65333 1.33333C7.062 1.33333 7.33333 1.66999 7.33333 2.01933C7.33333 2.18599 7.272 2.35533 7.134 2.49333L4.96067 4.66666H3.03933ZM11.0393 4.66666H12.9613L9.82667 1.53199C9.69467 1.39999 9.52067 1.33333 9.34667 1.33333C8.938 1.33333 8.66667 1.66999 8.66667 2.01933C8.66667 2.18599 8.728 2.35533 8.866 2.49333L11.0393 4.66666ZM13.508 7.33333L13.4973 7.36066L11.0987 13.3333H4.90133L2.50333 7.35933L2.49267 7.33333H13.508ZM16 5.99999H0V7.33333H0.428667C0.785333 7.33333 1.10933 7.53599 1.266 7.85599L4 14.6667H12L14.7347 7.85733C14.8907 7.53666 15.216 7.33333 15.572 7.33333H16V5.99999ZM6.66667 9.33333C6.66667 8.96533 6.36867 8.66666 6 8.66666C5.63133 8.66666 5.33333 8.96533 5.33333 9.33333V11.3333C5.33333 11.7013 5.63133 12 6 12C6.36867 12 6.66667 11.7013 6.66667 11.3333V9.33333ZM8.66667 9.33333C8.66667 8.96533 8.36867 8.66666 8 8.66666C7.63133 8.66666 7.33333 8.96533 7.33333 9.33333V11.3333C7.33333 11.7013 7.63133 12 8 12C8.36867 12 8.66667 11.7013 8.66667 11.3333V9.33333ZM10.6667 9.33333C10.6667 8.96533 10.3687 8.66666 10 8.66666C9.63133 8.66666 9.33333 8.96533 9.33333 9.33333V11.3333C9.33333 11.7013 9.63133 12 10 12C10.3687 12 10.6667 11.7013 10.6667 11.3333V9.33333Z" fill="black"/>
</svg>
